# xmcd
#
# Track frame offsets:
#	151
#	4954
#	21745
#	39567
#	49538
#	58183
#	69751
#	77099
#	89429
#	100908
#	108968
#	117721
#	136884
#	144306
#	155494
#	175142
#	179240
#	196914
#	210750
#	217880
#	230507
#	239563
#	255171
#	274087
#	283513
#	291327
#	297674
#	303617
#	312836
#	324441
#
# Disc length: 4363 seconds
#
# Revision: 0
# Processed by: cddbd v1.5.1PL0 Copyright (c) Steve Scherf et al.
# Submitted via: audiograbber 1.83.01
#
DISCID=c011091e
DTITLE=Zafeiris Melas - Live stin Thessalonoki
DYEAR=1900
DGENRE=
TTITLE0=Eisagogi
TTITLE1=Nai sou leo
TTITLE2=Den ton agapas
TTITLE3=Pare fotia
TTITLE4=Leo
TTITLE5=Zoi paramithenia
TTITLE6=Katigoro
TTITLE7=Ftanei ftanei
TTITLE8=Den tha me xexaseis
TTITLE9=Taxeia
TTITLE10=Kardia mou eixes agapisei
TTITLE11=Monos de tha 'mai
TTITLE12=Saga krosta
TTITLE13=Elmpi-elmpi
TTITLE14=Mi mou peis ros m' agapas
TTITLE15=Orxistriko
TTITLE16=Agapimeni panagia
TTITLE17=An m' agapouses ligo
TTITLE18=Esy mou milas stin kardia mou
TTITLE19=Sto stavrodromi
TTITLE20=Gynaikes-gynaikes
TTITLE21=Vradiazei
TTITLE22=Pes mou ti sou' xo kanei
TTITLE23=Tha ta kapso
TTITLE24=Marameni mou gardenia
TTITLE25=Ypokrinesai
TTITLE26=Erota mou agiatrefte
TTITLE27=Agapi mou epikindini
TTITLE28=Eisai to lathos tis zois mou to megalo
TTITLE29=Apoxorisi
EXTD=
EXTT0=
EXTT1=
EXTT2=
EXTT3=
EXTT4=
EXTT5=
EXTT6=
EXTT7=
EXTT8=
EXTT9=
EXTT10=
EXTT11=
EXTT12=
EXTT13=
EXTT14=
EXTT15=
EXTT16=
EXTT17=
EXTT18=
EXTT19=
EXTT20=
EXTT21=
EXTT22=
EXTT23=
EXTT24=
EXTT25=
EXTT26=
EXTT27=
EXTT28=
EXTT29=
PLAYORDER=
